<svg 
    version="1.1" baseProfile="full"
    xmlns="http://www.w3.org/2000/svg" 
    xmlns:xlink="http://www.w3.org/1999/xlink"
    xmlns:ev="http://www.w3.org/2001/xml-events"
    width="480" height="500">

   
    <defs>
        <linearGradient id="gradient" gradientTransform="rotate(60)">
            <stop offset="10%" stop-color="#8f6ca2" />
            <stop offset="90%" stop-color="#7435a7" />
        </linearGradient>
    </defs>
    
    <line x1="14" y1="450" x2="470" y2="450" 
        stroke="#5a2f2f" stroke-width="15px" />
    
    <line x1="22" y1="18" x2="22" y2="450" 
        stroke="#5a2f2f" stroke-width="15px" />
      
    <line x1="72" y1="129" x2="72" y2="450" 
        stroke="#5a2f2f" stroke-width="7px" />

    <line x1="122" y1="202" x2="122" y2="450" 
        stroke="#5a2f2f" stroke-width="7px" />
    
    <line x1="172" y1="236" x2="172" y2="450" 
        stroke="#5a2f2f" stroke-width="7px" />

    <line x1="222" y1="237" x2="222" y2="450" 
        stroke="#5a2f2f" stroke-width="7px" />

    <line x1="272" y1="249" x2="272" y2="450" 
        stroke="#5a2f2f" stroke-width="7px" />

    <line x1="322" y1="286" x2="322" y2="450" 
        stroke="#5a2f2f" stroke-width="7px" />

    <line x1="372" y1="345" x2="372" y2="450" 
        stroke="#5a2f2f" stroke-width="7px" />

    <polyline points= "22,70 70,130 24,180 120,206 26,260 118,290 26,340 120,390 24,447 " 
        stroke="#5a2f2f" stroke-width="7px" fill="transparent" />
    
    <polyline points= "220,240 120,290 220,343 120,390 220,449" 
        stroke="#5a2f2f" stroke-width="7px" fill="transparent" />
    
    <polyline points= "220,240 320,290 220,343 320,390 220,450" 
        stroke="#5a2f2f" stroke-width="7px" fill="transparent" />

    <polyline points= "372,349 320,390 440,450" 
        stroke="#5a2f2f" stroke-width="5px" fill="transparent" />


    <circle cx="63" cy="42" r="28" 
        stroke="#a297d3" stroke-width="4px" fill="url('#gradient')" >
        <animateMotion
            dur="7s"
            repeatCount="indefinite"
            path = "M 17 20 C 100 320 250 15 400 400 430 420 530 430 450 450" />
        </circle>


    <path d="M 21 20 C 200 450 200 30 440 450" 
        stroke="#5a2f2f" stroke-width="15px" fill="transparent"/>

     <ellipse cx="460" cy="450" rx="50" ry="30" 
        stroke="#71fdb3" stroke-width="5px" fill="black" >
        <animate
            attributeName="stroke-width"
            values="1px; 10px; 5px; 10px; 1px"
            dur="10s"
            repeatCount="indefinite" /> 
     </ellipse>
    
    <ellipse cx="80" cy="10" rx="50" ry="30" 
        stroke="#71fdb3" stroke-width="5px" fill="black">
        <animate
            attributeName="stroke-width"
            values="1px; 10px; 5px; 10px; 1px"
            dur="10s"
            repeatCount="indefinite" /> 
    </ellipse>


    <polygon id="poly" points="250,70 254,55 258,70 250,60 258,60" 
        stroke="yellow" stroke-width="3px" fill="yellow">
        <animateTransform
                attributeName="transform"
                attributeType="XML"
                type="rotate"
                from="400 100 50"
                to="10 70 300"
                dur="8s"
                repeatCount="indefinite" />
    </polygon>

    <polygon id="poly" points="350,50 354,35 358,50 350,40 358,40" 
        stroke="yellow" stroke-width="3px" fill="yellow">
        <animateTransform
                attributeName="transform"
                attributeType="XML"
                type="rotate"
                from="0 10 40"
                to="50 60 600"
                dur="10s"
                repeatCount="indefinite" />
    </polygon>

    <polygon id="poly" points="450,50 454,35 458,50 450,40 458,40" 
        stroke="yellow" stroke-width="3px" fill="yellow"/>

    <polygon id="poly" points="150,50 154,35 158,50 150,40 158,40" 
        stroke="yellow" stroke-width="3px" fill="yellow"/>
    
    <polygon id="poly" points="200,150 204,135 208,150 200,140 208,140" 
        stroke="yellow" stroke-width="3px" fill="yellow"/>

    <polygon points="270,50 274,35 278,50 270,40 278,40" 
        stroke="yellow" stroke-width="3px" fill="yellow"/>
    
    <polygon  points="400,120 404,105 408,120 400,110 408,110" 
        stroke="yellow" stroke-width="3px" fill="yellow"/>
    
    <polygon  points="350,210 354,195 358,210 350,200 358,200" 
        stroke="yellow" stroke-width="3px" fill="yellow"/>

    <polygon points="290,200 294,185 298,200 290,190 298,190" 
        stroke="yellow" stroke-width="3px" fill="yellow"/>
    
    <polygon  points="400,20 404,5 408,20 400,10 408,10" 
        stroke="yellow" stroke-width="3px" fill="yellow"/>
    
    <polygon  points="320,20 324,5 328,20 320,10 328,10" 
        stroke="yellow" stroke-width="3px" fill="yellow"/>
    
     <polygon  points="300,110 304,95 308,110 300,100 308,100" 
        stroke="yellow" stroke-width="3px" fill="yellow"/>

</svg>